<?xml version="1.0" encoding="UTF-8" standalone="no"?>
<!-- Created with Inkscape (http://www.inkscape.org/) -->

<svg
   xmlns:dc="http://purl.org/dc/elements/1.1/"
   xmlns:cc="http://creativecommons.org/ns#"
   xmlns:rdf="http://www.w3.org/1999/02/22-rdf-syntax-ns#"
   xmlns:svg="http://www.w3.org/2000/svg"
   xmlns="http://www.w3.org/2000/svg"
   version="1.1"
   width="245"
   height="300"
   viewBox="0 0 69.144446 84.666667"
   id="svg2"
   xml:space="preserve"
   style="fill-rule:evenodd"><metadata
   id="metadata18"><rdf:RDF><cc:Work
       rdf:about=""><dc:format>image/svg+xml</dc:format><dc:type
         rdf:resource="http://purl.org/dc/dcmitype/StillImage" /><dc:title></dc:title></cc:Work></rdf:RDF></metadata>
 <defs
   id="defs4"><style
     type="text/css"
     id="style6" /></defs>
 <path
   d="m 16.59258,76.957107 c 1.37316,0 2.48738,1.25066 2.48738,2.79141 0,1.54075 -1.11422,2.79147 -2.48738,2.79147 -1.37311,0 -2.48728,-1.25072 -2.48728,-2.79147 0,-1.54075 1.11417,-2.79141 2.48728,-2.79141 z m 0,-2.12668 c 2.73581,0 4.95447,2.20246 4.95447,4.91815 0,2.71563 -2.21866,4.91809 -4.95447,4.91809 -2.73576,0 -4.95442,-2.20246 -4.95442,-4.91809 0,-2.71569 2.21866,-4.91815 4.95442,-4.91815 z m 11.58676,2.12668 c 0.84903,0 1.64768,0.38026 2.09656,1.10945 l 1.62744,-1.56088 c -0.90815,-1.02673 -2.23981,-1.67525 -3.724,-1.67525 -2.73575,0 -4.95442,2.20246 -4.95442,4.91815 0,2.71563 2.21867,4.91809 4.95442,4.91809 1.51858,0 2.87748,-0.67899 3.78636,-1.74734 l -1.69111,-1.44797 c -0.45149,0.70599 -1.26231,1.06863 -2.09525,1.06863 -1.37311,0 -2.48727,-1.25072 -2.48727,-2.79147 0,-1.54075 1.11416,-2.79141 2.48727,-2.79141 z m 16.37689,3.43692 7.11635,0 c 0.0269,-0.21125 0.0409,-0.4267 0.0409,-0.64545 0,-2.71569 -2.13999,-4.91815 -4.77876,-4.91815 -2.63872,0 -4.7787,2.20246 -4.7787,4.91815 0,2.71563 2.13998,4.91809 4.7787,4.91809 1.50488,0 3.23516,-0.25542 4.11113,-1.37476 l -1.08801,-1.57469 c -0.5458,0.78468 -1.98974,1.0032 -2.91113,1.0032 -1.21791,0 -2.2372,-0.99603 -2.49046,-2.32639 z m 0.0542,-1.52893 c 0.32312,-1.20944 1.29204,-2.08848 2.43622,-2.08848 1.14424,0 2.11321,0.87904 2.43634,2.08848 l -4.87256,0 z m -11.20776,-3.80995 7.65856,0 0,2.1102 -2.64684,0 0,7.27654 -2.36488,0 0,-7.27654 -2.64684,0 0,-2.1102 z m 22.22519,4.54761 -3.2238,-4.54761 2.84792,0 1.92948,2.90573 1.92948,-2.90573 2.84791,0 -3.22379,4.54761 3.36978,4.83913 -2.75207,0 -2.17131,-3.14187 -2.17131,3.14187 -2.75207,0 3.36978,-4.83913 z m 1.5536,-1.20216 -0.0111,0.0185 0.0111,2.3e-4 0.0111,-2.3e-4 -0.0111,-0.0185 z M 5.885266,73.822227 c 1.02713,0 1.860067,0.83293 1.860067,1.86006 0,1.02713 -0.832937,1.86007 -1.860067,1.86007 l -3.135112,0 0,-3.72013 3.135112,0 z m -5.732783,-2.20883 6.267495,0 c 2.246862,0 4.068952,1.82209 4.068952,4.06884 0,2.24692 -1.822147,4.06895 -4.068952,4.06895 l -3.669824,0 0,4.6907 -2.597671,0 0,-12.82849 z"
   id="path10"
   style="fill:#000000" /><path
   d="m 7.93121,7.9312066 20.73754,0 -7.93121,-7.9312079919578 -20.73754,0 L 0,20.737587 l 7.93121,7.93121 0,-20.7375904 z m 25.01944,0 20.73754,0 0,20.7375904 7.93121,-7.93121 0,-20.7375883919578 -20.73754,0 L 32.95065,7.9312066 z m 20.73754,25.0193904 0,20.73759 -20.73754,0 7.93121,7.93121 20.73754,0 0,-20.73759 -7.93121,-7.93121 z m -25.01944,20.73759 -20.73754,0 0,-20.73759 L 0,40.881807 l 0,20.73759 20.73754,0 7.93121,-7.93121 z"
   id="path12"
   style="fill:#000000" /><path
   d="m 63.83272,0.33557161 1.98422,0 0,0.427782 -0.77813,0 0,2.37573599 -0.42796,0 0,-2.37573599 -0.77813,0 0,-0.427782 z m 3.76629,2.08717599 0.9293,-2.08700499 0.47639,0 0,2.80328999 -0.42796,0 0,-1.84199 -0.82276,1.84199 -0.30999,0 -0.82271,-1.84199 0,1.84199 -0.42795,0 0,-2.80328999 0.47633,0 0.92935,2.08700499 z"
   id="path14"
   style="fill:#000000;fill-rule:nonzero" />
</svg>